# xmcd
#
# Track frame offsets: 
#        150
#        4208
#        20721
#        37105
#        53376
#        73346
#        89720
#        116784
#        134394
#        159234
#        176535
#        189943
#        209160
#        223590
#        249319
#
# Disc length: 3339 seconds
#
# Revision: 0
# Processed by: cddbd v1.5.2PL0 Copyright (c) Steve Scherf et al.
# Submitted via: ExactAudioCopy v0.95b3
#
DISCID=dc0d090f
DTITLE=Neil Diamond  - Radio 2  
DYEAR=1900
DGENRE=
TTITLE0=Intro
TTITLE1=Beautiful Noise
TTITLE2=Hello Again
TTITLE3=Love On The Rocks
TTITLE4=Thank The Lord For The Night Time
TTITLE5=Pretty Amazing Grace
TTITLE6=Home Before Dark
TTITLE7=Forever In Blue Jeans
TTITLE8=Speech
TTITLE9=Man Of God
TTITLE10=Cracklin Rosie
TTITLE11=Sweet Caroline
TTITLE12=I'm A Believer
TTITLE13=I Am I Said
TTITLE14=Outro
EXTD=
EXTT0=
EXTT1=
EXTT2=
EXTT3=
EXTT4=
EXTT5=
EXTT6=
EXTT7=
EXTT8=
EXTT9=
EXTT10=
EXTT11=
EXTT12=
EXTT13=
EXTT14=
PLAYORDER=
